<?xml version="1.0" encoding="UTF-8" standalone="no"?>
<svg
   xmlns:dc="http://purl.org/dc/elements/1.1/"
   xmlns:cc="http://creativecommons.org/ns#"
   xmlns:rdf="http://www.w3.org/1999/02/22-rdf-syntax-ns#"
   xmlns:svg="http://www.w3.org/2000/svg"
   xmlns="http://www.w3.org/2000/svg"
   viewBox="0 0 410.76001 296.10666"
   height="296.10666"
   width="410.76001"
   xml:space="preserve"
   id="svg2"
   version="1.1"><metadata
     id="metadata8"><rdf:RDF><cc:Work
         rdf:about=""><dc:format>image/svg+xml</dc:format><dc:type
           rdf:resource="http://purl.org/dc/dcmitype/StillImage" /></cc:Work></rdf:RDF></metadata><defs
     id="defs6" /><g
     transform="matrix(1.3333333,0,0,-1.3333333,0,296.10667)"
     id="g10"><g
       transform="scale(0.1)"
       id="g12"><path
         id="path14"
         style="fill:#63ccee;fill-opacity:1;fill-rule:nonzero;stroke:none"
         d="m 2692.27,2010.95 c 0,57 17.38,100.37 52.24,130.15 34.83,29.75 76.95,44.65 126.35,44.65 46.85,0 87.69,-14.9 122.56,-44.65 34.82,-29.78 52.24,-73.15 52.24,-130.15 v -991.8 c 0,-29.15 -5.07,-55.099 -15.19,-77.9 -10.16,-22.801 -23.13,-42.129 -38.97,-57.949 -15.84,-15.86 -34.2,-27.871 -55.09,-36.09 -20.9,-8.231 -42.76,-12.359 -65.55,-12.359 -30.39,0 -60.18,7.597 -89.3,22.796 -29.16,15.204 -54.47,39.25 -75.99,72.204 l -345.8,514.898 v -435.1 c 0,-57.002 -17.43,-100.4 -52.25,-130.15 -34.86,-29.781 -76.95,-44.648 -126.37,-44.648 -46.87,0 -87.38,14.867 -121.58,44.648 -34.22,29.75 -51.31,73.148 -51.31,130.15 v 993.7 c 0,27.85 4.75,53.2 14.26,76 9.49,22.8 22.46,42.1 38.94,57.95 16.45,15.83 34.83,27.84 55.1,36.1 20.26,8.23 41.8,12.35 64.59,12.35 31.66,0 62.05,-7.3 91.21,-21.85 29.12,-14.58 54.46,-38.33 76,-71.25 l 343.91,-514.9 v 433.2" /><path
         id="path16"
         style="fill:none;stroke:#ffffff;stroke-width:70;stroke-linecap:butt;stroke-linejoin:miter;stroke-miterlimit:10;stroke-dasharray:none;stroke-opacity:1"
         d="m 2692.27,2010.95 c 0,57 17.38,100.37 52.24,130.15 34.83,29.75 76.95,44.65 126.35,44.65 46.85,0 87.69,-14.9 122.56,-44.65 34.82,-29.78 52.24,-73.15 52.24,-130.15 v -991.8 c 0,-29.15 -5.07,-55.099 -15.19,-77.9 -10.16,-22.801 -23.13,-42.129 -38.97,-57.949 -15.84,-15.86 -34.2,-27.871 -55.09,-36.09 -20.9,-8.231 -42.76,-12.359 -65.55,-12.359 -30.39,0 -60.18,7.597 -89.3,22.796 -29.16,15.204 -54.47,39.25 -75.99,72.204 l -345.8,514.898 v -435.1 c 0,-57.002 -17.43,-100.4 -52.25,-130.15 -34.86,-29.781 -76.95,-44.648 -126.37,-44.648 -46.87,0 -87.38,14.867 -121.58,44.648 -34.22,29.75 -51.31,73.148 -51.31,130.15 v 993.7 c 0,27.85 4.75,53.2 14.26,76 9.49,22.8 22.46,42.1 38.94,57.95 16.45,15.83 34.83,27.84 55.1,36.1 20.26,8.23 41.8,12.35 64.59,12.35 31.66,0 62.05,-7.3 91.21,-21.85 29.12,-14.58 54.46,-38.33 76,-71.25 l 343.91,-514.9 z" /><path
         id="path18"
         style="fill:#63ccee;fill-opacity:1;fill-rule:nonzero;stroke:none"
         d="m 1664.15,1391.55 h 178.6 l -81.7,241.3 z m 279.29,-290.7 h -395.19 l -58.9,-146.299 c -17.75,-40.551 -41.18,-70.629 -70.3,-90.262 -29.15,-19.641 -59.55,-29.437 -91.2,-29.437 -25.35,0 -49.72,4.128 -73.15,12.359 -23.45,8.219 -44.65,19.937 -63.65,35.141 -19,15.199 -34.2,33.546 -45.6,55.097 -11.4,21.52 -17.1,45.602 -17.1,72.201 0,30.4 4.42,55.1 13.3,74.1 l 452.2,991.8 c 15.2,32.93 34.82,59.52 58.9,79.8 24.05,20.24 61.42,30.4 112.1,30.4 48.13,0 84.55,-10.16 109.25,-30.4 24.69,-20.28 43.99,-47.5 57.95,-81.7 l 412.29,-989.9 c 8.84,-22.8 13.3,-47.5 13.3,-74.1 0,-25.361 -5.69,-48.779 -17.09,-70.298 -11.41,-21.551 -26.31,-39.903 -44.65,-55.102 -18.38,-15.199 -39.61,-27.262 -63.65,-36.109 -24.09,-8.84 -48.15,-13.289 -72.21,-13.289 -37.99,0 -71.25,9.796 -99.75,29.437 -28.49,19.633 -49.72,49.711 -63.65,90.262 l -53.2,146.299" /><path
         id="path20"
         style="fill:none;stroke:#ffffff;stroke-width:70;stroke-linecap:butt;stroke-linejoin:miter;stroke-miterlimit:10;stroke-dasharray:none;stroke-opacity:1"
         d="m 1664.15,1391.55 h 178.6 l -81.7,241.3 z m 279.29,-290.7 h -395.19 l -58.9,-146.299 c -17.75,-40.551 -41.18,-70.629 -70.3,-90.262 -29.15,-19.641 -59.55,-29.437 -91.2,-29.437 -25.35,0 -49.72,4.128 -73.15,12.359 -23.45,8.219 -44.65,19.937 -63.65,35.141 -19,15.199 -34.2,33.546 -45.6,55.097 -11.4,21.52 -17.1,45.602 -17.1,72.201 0,30.4 4.42,55.1 13.3,74.1 l 452.2,991.8 c 15.2,32.93 34.82,59.52 58.9,79.8 24.05,20.24 61.42,30.4 112.1,30.4 48.13,0 84.55,-10.16 109.25,-30.4 24.69,-20.28 43.99,-47.5 57.95,-81.7 l 412.29,-989.9 c 8.84,-22.8 13.3,-47.5 13.3,-74.1 0,-25.361 -5.69,-48.779 -17.09,-70.298 -11.41,-21.551 -26.31,-39.903 -44.65,-55.102 -18.38,-15.199 -39.61,-27.262 -63.65,-36.109 -24.09,-8.84 -48.15,-13.289 -72.21,-13.289 -37.99,0 -71.25,9.796 -99.75,29.437 -28.49,19.633 -49.72,49.711 -63.65,90.262 z" /><path
         id="path22"
         style="fill:#63ccee;fill-opacity:1;fill-rule:nonzero;stroke:none"
         d="m 712.742,838.262 c -122.254,0 -183.347,61.957 -183.347,185.928 v 963.83 c 0,123.95 61.093,185.94 183.347,185.94 h 627.948 c 58.25,0 103.55,-18.29 135.85,-54.83 32.3,-36.55 48.46,-80.01 48.46,-130.42 0,-50.41 -16.16,-93.9 -48.46,-130.44 -32.3,-36.55 -77.6,-54.81 -135.85,-54.81 H 897.992 v -127.3 h 368.598 c 53.2,0 94.67,-16.8 124.45,-50.35 29.75,-33.58 44.65,-73.15 44.65,-118.75 0,-45.6 -14.9,-85.2 -44.65,-118.75 -29.78,-33.58 -71.25,-50.35 -124.45,-50.35 H 897.992 v -129.2 h 442.698 c 58.25,0 103.55,-18.05 135.85,-54.15 32.3,-36.1 48.46,-79.5 48.46,-130.15 0,-50.679 -16.16,-94.382 -48.46,-131.101 -32.3,-36.757 -77.6,-55.097 -135.85,-55.097 H 712.742" /><path
         id="path24"
         style="fill:none;stroke:#ffffff;stroke-width:70;stroke-linecap:butt;stroke-linejoin:miter;stroke-miterlimit:10;stroke-dasharray:none;stroke-opacity:1"
         d="m 712.742,838.262 c -122.254,0 -183.347,61.957 -183.347,185.928 v 963.83 c 0,123.95 61.093,185.94 183.347,185.94 h 627.948 c 58.25,0 103.55,-18.29 135.85,-54.83 32.3,-36.55 48.46,-80.01 48.46,-130.42 0,-50.41 -16.16,-93.9 -48.46,-130.44 -32.3,-36.55 -77.6,-54.81 -135.85,-54.81 H 897.992 v -127.3 h 368.598 c 53.2,0 94.67,-16.8 124.45,-50.35 29.75,-33.58 44.65,-73.15 44.65,-118.75 0,-45.6 -14.9,-85.2 -44.65,-118.75 -29.78,-33.58 -71.25,-50.35 -124.45,-50.35 H 897.992 v -129.2 h 442.698 c 58.25,0 103.55,-18.05 135.85,-54.15 32.3,-36.1 48.46,-79.5 48.46,-130.15 0,-50.679 -16.16,-94.382 -48.46,-131.101 -32.3,-36.757 -77.6,-55.097 -135.85,-55.097 z" /><path
         id="path26"
         style="fill:#868c8e;fill-opacity:1;fill-rule:nonzero;stroke:none"
         d="M 303.613,0 C 185.051,0 68.5664,72.7891 68.5664,270.41 c 0,197.602 116.4846,269.352 235.0466,269.352 72.805,0 123.766,-20.801 173.688,-73.821 l -72.805,-70.73 c -33.281,36.391 -59.281,49.918 -100.883,49.918 -40.562,0 -74.883,-16.641 -97.761,-46.809 -22.883,-29.121 -31.204,-66.558 -31.204,-127.91 0,-61.371 8.321,-99.851 31.204,-128.969 22.878,-30.171 57.199,-46.8121 97.761,-46.8121 41.602,0 67.602,13.5311 100.883,49.9221 L 477.301,74.8789 C 427.379,21.832 376.418,0 303.613,0" /><path
         id="path28"
         style="fill:#868c8e;fill-opacity:1;fill-rule:nonzero;stroke:none"
         d="m 881.852,384.801 c -16.641,39.531 -54.082,66.57 -104.004,66.57 -49.922,0 -88.407,-27.039 -105.043,-66.57 -10.403,-23.922 -12.485,-39.512 -13.524,-71.762 H 896.41 c -1.039,32.25 -4.16,47.84 -14.558,71.762 z M 659.281,239.199 c 0,-90.488 47.844,-147.6795 134.164,-147.6795 59.285,0 90.485,16.6405 127.926,54.0825 L 988.977,82.1484 C 934.895,28.0586 883.93,0 791.367,0 659.281,0 554.238,69.6719 554.238,270.41 c 0,170.559 88.403,269.352 223.61,269.352 141.445,0 223.612,-104 223.612,-253.774 V 239.199 H 659.281" /><path
         id="path30"
         style="fill:#868c8e;fill-opacity:1;fill-rule:nonzero;stroke:none"
         d="M 1463.2,6.23047 V 327.602 c 0,82.16 -46.8,117.527 -106.09,117.527 -59.28,0 -109.2,-36.399 -109.2,-117.527 V 6.23047 H 1141.83 V 533.531 h 104 v -53.043 c 36.4,39.532 87.36,59.274 140.41,59.274 54.08,0 98.8,-17.672 130,-47.832 40.56,-39.532 53.04,-89.45 53.04,-148.731 V 6.23047 H 1463.2" /><path
         id="path32"
         style="fill:#868c8e;fill-opacity:1;fill-rule:nonzero;stroke:none"
         d="m 1889.59,6.23047 c -98.81,0 -144.58,70.71873 -144.58,146.64053 v 290.168 h -60.31 v 81.141 h 60.31 v 160.152 h 106.1 V 524.18 h 101.92 V 443.039 H 1851.11 V 158.082 c 0,-38.492 18.71,-61.3632 58.25,-61.3632 h 43.67 V 6.23047 h -63.44" /><path
         id="path34"
         style="fill:#868c8e;fill-opacity:1;fill-rule:nonzero;stroke:none"
         d="m 2385.68,384.801 c -16.64,39.531 -54.08,66.57 -104,66.57 -49.92,0 -88.4,-27.039 -105.04,-66.57 -10.41,-23.922 -12.48,-39.512 -13.53,-71.762 h 237.12 c -1.03,32.25 -4.16,47.84 -14.55,71.762 z M 2163.11,239.199 c 0,-90.488 47.85,-147.6795 134.18,-147.6795 59.27,0 90.46,16.6405 127.91,54.0825 l 67.61,-63.4536 C 2438.73,28.0586 2387.75,0 2295.2,0 c -132.09,0 -237.13,69.6719 -237.13,270.41 0,170.559 88.39,269.352 223.61,269.352 141.45,0 223.61,-104 223.61,-253.774 v -46.789 h -342.18" /><path
         id="path36"
         style="fill:#868c8e;fill-opacity:1;fill-rule:nonzero;stroke:none"
         d="m 2935.82,409.762 c -23.93,23.929 -42.64,35.367 -79.04,35.367 -57.21,0 -105.04,-45.758 -105.04,-118.57 V 6.23047 h -106.1 V 533.531 h 104.01 v -57.203 c 27.05,37.442 81.13,63.434 140.41,63.434 50.96,0 89.43,-13.512 125.84,-49.922 l -80.08,-80.078" /><path
         id="path38"
         style="fill:#63ccee;fill-opacity:1;fill-rule:nonzero;stroke:none"
         d="m 1921.66,902.891 c 0,-232.813 -188.74,-421.563 -421.61,-421.563 -232.85,0 -421.6,188.75 -421.6,421.563 0,232.859 188.75,421.639 421.6,421.639 232.87,0 421.61,-188.78 421.61,-421.639" /><path
         id="path40"
         style="fill:#ffffff;fill-opacity:1;fill-rule:nonzero;stroke:none"
         d="m 1840.25,902.988 c 0,-187.859 -152.36,-340.258 -340.13,-340.258 -188.03,0 -340.25,152.399 -340.25,340.258 0,187.902 152.22,340.142 340.25,340.142 187.77,0 340.13,-152.24 340.13,-340.142" /><path
         id="path42"
         style="fill:#868c8e;fill-opacity:1;fill-rule:nonzero;stroke:none"
         d="m 1414.85,976.879 c -12.88,12.883 -22.97,19.043 -42.56,19.043 -30.81,0 -56.56,-24.641 -56.56,-63.844 V 759.602 h -57.12 v 283.918 h 55.99 v -30.8 c 14.57,20.16 43.69,34.16 75.61,34.16 27.44,0 48.15,-7.28 67.75,-26.88 l -43.11,-43.121" /><path
         id="path44"
         style="fill:#868c8e;fill-opacity:1;fill-rule:nonzero;stroke:none"
         d="m 1675.81,759.602 v 28.558 c -19.6,-21.289 -47.05,-31.922 -75.6,-31.922 -29.12,0 -53.2,9.524 -70,25.762 -21.85,21.281 -28.56,48.148 -28.56,80.078 v 181.442 h 57.11 V 870.48 c 0,-44.242 25.21,-63.281 57.12,-63.281 31.93,0 58.8,19.59 58.8,63.281 v 173.04 h 57.12 V 759.602 h -55.99" /><path
         id="path46"
         style="fill:#63ccee;fill-opacity:1;fill-rule:nonzero;stroke:none"
         d="M 218.352,838.262 C 96.0938,838.262 35,900.309 35,1024.46 v 974.7 c 0,58.25 18.1406,103.22 54.4141,134.9 36.2769,31.65 79.2699,47.5 128.9379,47.5 49.636,0 92.918,-15.85 129.851,-47.5 36.93,-31.68 55.395,-76.65 55.395,-134.9 v -790.4 h 195.699 c 57.004,0 100.375,-18.05 130.152,-54.15 29.746,-36.1 44.649,-79.5 44.649,-130.15 0,-50.679 -14.903,-94.382 -44.649,-131.101 -29.777,-36.757 -73.148,-55.097 -130.152,-55.097 H 218.352" /><path
         id="path48"
         style="fill:none;stroke:#ffffff;stroke-width:70;stroke-linecap:butt;stroke-linejoin:miter;stroke-miterlimit:10;stroke-dasharray:none;stroke-opacity:1"
         d="M 218.352,838.262 C 96.0938,838.262 35,900.309 35,1024.46 v 974.7 c 0,58.25 18.1406,103.22 54.4141,134.9 36.2769,31.65 79.2699,47.5 128.9379,47.5 49.636,0 92.918,-15.85 129.851,-47.5 36.93,-31.68 55.395,-76.65 55.395,-134.9 v -790.4 h 195.699 c 57.004,0 100.375,-18.05 130.152,-54.15 29.746,-36.1 44.649,-79.5 44.649,-130.15 0,-50.679 -14.903,-94.382 -44.649,-131.101 -29.777,-36.757 -73.148,-55.097 -130.152,-55.097 z" /></g></g></svg>